<?xml version="1.0" encoding="utf-8" ?>
<svg xmlns="http://www.w3.org/2000/svg" xmlns:xlink="http://www.w3.org/1999/xlink" width="1536" height="1024">
	<path fill="#FEF3D0" d="M0 0L1534.69 0C1535.54 1.34434 1535.84 2.50848 1535.91 4.09208C1536.57 18.5072 1536 33.1619 1536 47.604L1536.01 132.471L1536.01 391.421L1536.01 865.91L1536 981.169C1536 989.131 1537.19 1015.2 1535.79 1021.39C1535.57 1022.35 1535.21 1023.17 1534.69 1024L0 1024L0 0Z"/>
	<path fill="#333226" d="M579.857 111.879C590.995 111.352 605.857 109.498 615.795 115.361C622.148 119.108 624.213 124.461 625.951 131.31C651.06 139.602 674.526 143.155 700.867 144.535C704.786 141.921 708.126 140.816 712.796 140.219C718.038 139.549 723.521 140.247 727.705 143.736C732.34 147.603 733.692 153.694 734.001 159.446C734.512 168.976 736.251 186.794 728.999 194.156C723.867 199.366 713.15 198.082 706.527 197.914C704.277 196.561 702.121 195.008 699.941 193.542C694.995 193.529 690.032 193.846 685.091 194.055L685.324 223.711L708.961 223.543C723.803 223.5 737.11 224.689 748.13 235.866C753.719 241.536 757.424 248.785 759.482 256.431C764.563 275.307 762.253 312.151 762.133 332.974L812.903 332.985L812.936 320.97C803.037 321.004 779.067 323.373 771.679 316.584C767.627 312.861 766.895 307.22 766.785 302.018C766.659 296.069 766.741 289.086 771.302 284.608C778.467 277.574 802.822 280.617 812.811 280.648L812.84 223.404C802.852 223.464 778.83 226.076 771.651 219.742C768.136 216.64 767.075 212.111 766.819 207.629C766.461 201.339 766.311 192.922 771.044 188.027C778.163 180.666 802.646 183.645 812.835 183.654C812.774 178.441 811.72 169.808 814.758 165.366C816.575 162.709 821.541 161.85 824.545 161.507C831.891 160.667 848.969 159.542 854.715 164.721C858.593 168.216 857.576 178.911 857.645 183.781L1250.47 183.949C1253.21 179.189 1250.58 172.782 1252.68 167.672C1253.71 165.156 1255.01 163.786 1257.49 162.752C1264.6 159.797 1282.38 159.819 1289.37 163.134C1292.7 164.716 1295.5 167.338 1296.53 170.971C1297.51 174.397 1296.97 180.867 1295.12 183.928C1305.59 184.049 1328.89 181.088 1336.82 187.356C1340.55 190.309 1341.81 194.867 1342.12 199.407C1342.55 205.764 1342.63 214.355 1337.88 219.296C1331.03 226.441 1305.75 223.573 1295.33 223.549C1295.85 224.395 1296.21 225.218 1296.43 226.198C1297.65 231.807 1297.12 270.309 1296.46 277.251C1296.34 278.503 1295.93 279.508 1295.27 280.56C1305.61 280.74 1329.6 277.611 1337.12 284.314C1341.27 288.017 1342.04 293.627 1342.17 298.883C1342.31 304.779 1342.27 311.883 1337.7 316.317C1330.19 323.619 1305.96 320.994 1295.39 320.982C1295.65 321.434 1295.75 321.56 1295.94 322.006C1297.45 325.459 1296.88 329.586 1295.56 332.973C1307.31 333.001 1336.2 330.43 1345.84 336.069C1349.69 338.325 1352.58 342.255 1353.74 346.562C1356.17 355.587 1354.73 392.794 1354.74 404.444C1354.76 426.16 1355.87 448.538 1354.65 470.189C1354.57 471.523 1354.28 472.499 1353.64 473.654C1358.39 473.615 1363.86 473.217 1368.33 475.159C1371.04 476.341 1373.55 478.642 1374.51 481.497C1377.95 491.621 1376.2 552.92 1376.2 566.699C1376.2 585.386 1377.25 604.734 1376.05 623.36C1375.96 624.695 1375.62 625.758 1375.01 626.948C1382.82 626.878 1393.42 625.927 1399.45 631.972C1404.73 637.255 1405.46 646.572 1405.54 653.57C1405.68 664.968 1408.17 692.322 1399.31 700.644C1392.95 706.608 1382.89 705.36 1374.9 705.283C1375.01 705.461 1375.13 705.631 1375.23 705.818C1376.98 709.243 1376.37 713.636 1375.06 717.077C1384.58 716.949 1402.9 714.592 1410.84 720.103C1414.38 722.561 1415.96 727.569 1416.62 731.627C1418.24 741.475 1418.42 767.36 1412.55 775.39C1410.06 778.79 1407.12 780.03 1403.07 780.607C1395.89 781.627 1366.95 781.658 1360.1 780.502C1356.56 779.904 1353.38 778.929 1350.52 776.693L1347.18 774.142L1226.23 774.123C1226.34 774.4 1226.48 774.67 1226.57 774.954C1229.08 782.569 1221.65 801.988 1218.06 809.472C1210.46 825.306 1192.63 848.695 1175.5 854.682C1174.74 855.797 1173.45 856.39 1172.29 857.039C1150.78 869.032 1121.12 870.945 1097.73 864.112C1067.62 855.313 1041 829.811 1030.63 800.156C1028.53 794.163 1026.67 778.882 1024.33 774.99C1024.15 774.699 1023.96 774.419 1023.78 774.133L438.262 774.148C435.362 794 430.28 810.262 418.354 826.679C402.607 848.121 379.095 862.546 352.849 866.866C326.363 870.963 299.339 864.296 277.794 848.35C251.534 829.081 240.794 805.573 235.991 774.137C214.665 774.122 193.182 773.655 171.87 774.239C153.965 774.73 129.414 777.334 112.083 774.901C108.465 774.424 105.066 772.898 102.304 770.512C97.4043 766.235 96.4223 760.026 96.1201 753.856C95.6135 743.514 93.8272 715.686 100.98 708.233C106.368 702.619 113.727 702.828 120.916 702.841C120.454 661.31 120.886 619.726 120.869 578.189C120.862 559.024 119.103 530.351 121.674 512.161C122.921 503.24 126.126 494.705 131.059 487.169C150.709 457.162 201.117 447.786 234.375 440.837C249.652 389.125 265.642 337.628 282.34 286.358C285.311 277.009 284.456 266.955 287.906 257.843C290.457 251.104 294.956 244.828 300.122 239.847C313.649 226.802 331.273 223.629 349.381 224.08C350.632 218.205 351.98 211.829 354.941 206.552C358.656 199.931 363.923 197.007 371.015 194.962C371.946 178.503 371.259 158.918 381.889 145.269C388.43 136.871 399.089 132.245 409.449 130.949C420.547 129.56 432.23 133.015 440.977 139.978C457.73 153.314 455.264 176.288 457.607 195.383C461.343 196.201 464.444 197.289 467.455 199.691C474.961 205.678 477.185 214.769 478.182 223.893C514.115 223.857 550.174 223.198 586.091 223.922C583.686 222.395 580.107 222.6 577.416 221.487C573.331 219.798 569.76 215.758 568.128 211.716C560.008 191.602 559.568 142.439 568.362 122.977C571.014 117.109 573.787 114.208 579.857 111.879Z"/>
	<path fill="#DE4A28" d="M761.166 484.102L1188.7 484.169L1307.03 483.976C1322.19 483.949 1349.39 482.335 1363.47 484.719C1365.3 487.587 1365.02 491.973 1365.12 495.38C1366.38 540.404 1365.14 585.792 1365.15 630.851L1365.16 669.714C1365.16 674.813 1365.96 681.501 1364.88 686.385C1364.7 687.212 1364.34 687.873 1363.93 688.608C1366.65 694.095 1366.1 711.022 1364.28 716.92C1357.28 717.582 1352.35 718.492 1347.64 724.146C1346.97 724.949 1346.46 725.607 1345.6 726.247C1346.82 731.334 1346.57 749.654 1344.51 753.876C1345.97 756.661 1346.36 759.111 1345.4 762.156C1345.23 762.707 1345.02 763.189 1344.72 763.682C1337.36 763.648 1329.95 763.809 1322.6 763.511C1311.26 763.799 1299.89 763.573 1288.55 763.515C1281.89 764.141 1274.77 763.677 1268.06 763.703C1268.5 762.969 1268.81 762.342 1268.94 761.486C1269.82 755.943 1268.29 741.296 1265.36 736.807C1266.38 729.098 1260 712.413 1255.31 706.043C1254.6 700.205 1242.85 681.801 1238.22 678.15C1238.2 677.991 1238.19 677.829 1238.15 677.675C1237.03 673.7 1228.08 665.429 1224.54 663.143C1222.05 659.325 1216.96 655.95 1213.3 653.283C1196.97 641.379 1180.26 633.2 1160.44 629.033C1122.92 621.14 1082.71 625.92 1050.31 647.096C1043.76 651.375 1034.31 661.135 1027.93 663.821C939.053 663.823 850.082 662.963 761.22 663.903L761.166 484.102Z"/>
	<path fill="#FAAA2C" d="M1299.69 662.62C1313.69 662.327 1328.17 661.776 1342.13 662.651C1341.75 663.877 1341.44 664.658 1340.57 665.63C1332.86 674.188 1272.09 734.204 1268.06 736.513C1267.38 736.904 1266.92 737.07 1266.16 737.082L1266.67 736.48L1265.36 736.807C1266.38 729.098 1260 712.413 1255.31 706.043C1255.52 705.948 1255.75 705.86 1255.96 705.758C1259.42 704.128 1298.8 665.17 1299.69 662.62Z"/>
	<path fill="#FAAA2C" d="M1288.55 763.515C1289.47 759.774 1354.97 696.912 1363.93 688.608C1366.65 694.095 1366.1 711.022 1364.28 716.92C1357.28 717.582 1352.35 718.492 1347.64 724.146C1346.97 724.949 1346.46 725.607 1345.6 726.247C1346.82 731.334 1346.57 749.654 1344.51 753.876C1345.97 756.661 1346.36 759.111 1345.4 762.156C1345.23 762.707 1345.02 763.189 1344.72 763.682C1337.36 763.648 1329.95 763.809 1322.6 763.511C1311.26 763.799 1299.89 763.573 1288.55 763.515Z"/>
	<path fill="#DE4A28" d="M1322.6 763.511C1329.01 762.643 1339.11 757.583 1344.51 753.876C1345.97 756.661 1346.36 759.111 1345.4 762.156C1345.23 762.707 1345.02 763.189 1344.72 763.682C1337.36 763.648 1329.95 763.809 1322.6 763.511Z"/>
	<path fill="#DE4A28" d="M1254.29 662.504C1264.53 662.58 1274.76 662.599 1285 662.561C1289.59 662.539 1295.21 661.884 1299.69 662.62C1298.8 665.17 1259.42 704.128 1255.96 705.758C1255.75 705.86 1255.52 705.948 1255.31 706.043C1254.6 700.205 1242.85 681.801 1238.22 678.15C1243.26 677.08 1251.2 667.381 1254.82 663.444L1254.29 662.504Z"/>
	<path fill="#FAAA2C" d="M1224.54 663.143C1231.93 660.993 1246.18 662.474 1254.29 662.504L1254.82 663.444C1251.2 667.381 1243.26 677.08 1238.22 678.15C1238.2 677.991 1238.19 677.829 1238.15 677.675C1237.03 673.7 1228.08 665.429 1224.54 663.143Z"/>
	<path fill="#333226" d="M1035.36 499.992C1089.44 498.572 1143.85 499.81 1197.97 499.792L1269.5 499.72C1282.55 499.697 1295.85 499.156 1308.87 499.873C1313.53 500.13 1320.03 500.517 1323.96 503.352C1328.7 506.768 1330.94 511.847 1331.79 517.493C1333.15 526.648 1331.99 537.155 1332.05 546.487C1332.13 561.098 1333.77 584.582 1331.81 598.302C1331.21 602.538 1329.64 606.642 1327.02 610.043C1322.75 615.578 1317.15 617.592 1310.42 618.409C1310.09 618.5 1309.52 618.674 1309.15 618.737C1300.59 620.206 1289.66 619.226 1280.85 619.338C1255.41 619.566 1229.97 619.65 1204.54 619.591L1092.92 619.631C1074.43 619.633 1055.24 620.697 1036.82 619.413C1032.72 619.127 1028.63 618.108 1025.2 615.766C1020.72 612.708 1018.51 607.282 1017.61 602.111C1015.32 588.821 1017.17 564.93 1017.17 550.562C1017.17 540.189 1015.96 529.1 1017.06 518.818C1017.48 514.905 1018.55 511.074 1020.88 507.852C1024.45 502.929 1029.52 500.873 1035.36 499.992Z"/>
	<path fill="#DE4A28" d="M1243.39 510.5L1288.22 510.318C1295.98 510.286 1304.5 509.577 1312.15 510.843C1314.39 511.213 1316.58 511.912 1318.23 513.548C1320.98 516.289 1321.01 519.864 1321.02 523.481L1321.06 573.097C1321.07 581.693 1322.34 592.638 1320.25 600.896C1319.9 602.28 1318.68 603.572 1317.67 604.52C1315.07 606.971 1311.84 607.77 1308.4 608.124C1300.28 608.959 1291.81 608.446 1283.64 608.412L1243.88 608.38L1106.06 608.396C1095.36 608.354 1035.98 610.301 1030.92 606.163C1028.89 604.502 1028.16 601.769 1028.05 599.25C1027.39 583.869 1028 568.13 1027.97 552.707C1027.95 541.569 1026.82 529.3 1028.4 518.351C1028.64 516.684 1029.2 515.397 1030.39 514.186C1031.94 512.593 1033.65 511.261 1035.91 510.988C1044.21 509.984 1052.86 510.457 1061.21 510.492L1100.83 510.608L1243.39 510.5Z"/>
	<path fill="#333226" d="M1169.06 548.525C1177.48 546.314 1186.1 551.34 1188.33 559.759C1190.56 568.178 1185.55 576.811 1177.14 579.054C1168.7 581.305 1160.04 576.278 1157.81 567.836C1155.57 559.394 1160.62 550.742 1169.06 548.525Z"/>
	<path fill="#DE4A28" d="M1171.31 560.011C1173.38 558.995 1175.88 559.815 1176.94 561.858C1178.01 563.901 1177.25 566.422 1175.23 567.536C1173.88 568.28 1172.24 568.236 1170.93 567.419C1169.63 566.603 1168.87 565.142 1168.94 563.604C1169.02 562.065 1169.93 560.69 1171.31 560.011Z"/>
	<path fill="#333226" d="M798.875 499.891C835.794 498.873 872.988 499.735 909.942 499.745L959.913 499.798C967.277 499.814 974.869 499.356 982.2 499.781C985.361 499.964 988.771 500.557 991.484 502.278C993.753 503.718 994.268 504.859 994.822 507.381C997.961 521.673 996.226 552.163 996.253 567.888C996.284 587.032 997.584 607.064 995.895 626.113C995.689 628.432 995.4 630.814 994.025 632.773C991.323 636.621 987.305 638.091 982.899 638.932C947.833 639.879 912.523 638.998 877.432 639.004C852.758 639.008 827.488 640.314 802.898 638.98C799.349 638.788 794.754 638.359 791.624 636.539C788.889 634.949 786.506 631.506 785.702 628.454C783.654 620.676 785.062 586.22 785.072 576.27C785.091 555.962 783.809 534.869 785.327 514.645C785.546 511.718 785.811 508.715 787.471 506.193C790.153 502.117 794.334 500.691 798.875 499.891Z"/>
	<path fill="#6B6049" d="M796.479 510.849L984.916 510.832L984.9 627.291C963.246 627.872 941.393 627.279 919.717 627.273L796.258 627.252C797.194 588.522 796.453 549.599 796.479 510.849Z"/>
	<path fill="#333226" d="M883.602 524.116C897.307 520.035 911.731 527.807 915.864 541.5C919.997 555.192 912.283 569.65 898.61 573.837C884.862 578.048 870.31 570.28 866.154 556.512C861.998 542.744 869.821 528.219 883.602 524.116Z"/>
	<path fill="#FEF3D0" d="M888.667 534.016C896.951 532.738 904.703 538.415 905.987 546.7C907.27 554.985 901.599 562.743 893.317 564.032C888.954 564.712 884.512 563.458 881.147 560.597C877.783 557.737 875.831 553.553 875.798 549.136C875.743 541.601 881.221 535.164 888.667 534.016Z"/>
	<path fill="#333226" d="M889.718 541.921C893.294 541.094 896.87 543.301 897.732 546.87C898.595 550.439 896.424 554.037 892.865 554.935C889.255 555.847 885.596 553.637 884.721 550.018C883.846 546.398 886.091 542.76 889.718 541.921Z"/>
	<path fill="#333226" d="M832.95 523.124C847.232 521.596 860.029 531.983 861.477 546.276C862.925 560.569 852.471 573.312 838.174 574.681C823.988 576.04 811.369 565.682 809.932 551.5C808.495 537.319 818.78 524.639 832.95 523.124Z"/>
	<path fill="#FEF3D0" d="M832.861 533.498C835.382 533.337 838.244 533.6 840.63 534.509C844.443 535.962 847.415 538.633 848.956 542.457C850.671 546.714 850.315 551.605 848.375 555.716C846.041 560.661 842.423 563.147 837.421 564.935C834.799 564.971 832.26 564.527 829.867 563.44C825.958 561.689 822.938 558.411 821.512 554.371C820.052 550.22 820.428 545.734 822.325 541.789C824.581 537.095 828.101 535.107 832.861 533.498Z"/>
	<path fill="#333226" d="M834.019 541.941C837.581 541.093 841.167 543.253 842.083 546.8C842.998 550.346 840.907 553.973 837.379 554.956C835.037 555.609 832.525 554.946 830.81 553.221C829.095 551.497 828.446 548.98 829.111 546.641C829.777 544.302 831.653 542.505 834.019 541.941Z"/>
	<path fill="#333226" d="M943.657 523.217C957.825 521.533 970.683 531.636 972.402 545.804C974.121 559.971 964.052 572.858 949.892 574.612C935.682 576.373 922.744 566.258 921.019 552.04C919.294 537.823 929.439 524.907 943.657 523.217Z"/>
	<path fill="#FEF3D0" d="M944.245 534.119C952.472 532.668 960.33 538.122 961.85 546.339C963.371 554.555 957.985 562.461 949.784 564.052C941.484 565.663 933.462 560.196 931.923 551.88C930.384 543.563 935.918 535.587 944.245 534.119Z"/>
	<path fill="#333226" d="M944.528 541.94C948.017 540.718 951.841 542.525 953.113 545.998C954.384 549.47 952.632 553.321 949.178 554.642C946.9 555.513 944.33 555.09 942.451 553.534C940.572 551.979 939.676 549.532 940.106 547.131C940.537 544.73 942.226 542.746 944.528 541.94Z"/>
	<path fill="#333226" d="M818.819 586.752C828.071 585.81 865.041 585.119 872.472 587.546C875.994 588.697 879.375 590.747 880.987 594.233C882.643 597.814 881.623 601.655 880.217 605.118C878.436 609.504 875.725 611.046 871.602 612.775C863.834 614.126 827.723 614.297 820.134 612.595C816.744 611.835 813.597 609.821 811.836 606.779C810.059 603.709 809.887 600.046 810.706 596.656C811.94 591.549 814.561 589.323 818.819 586.752Z"/>
	<path fill="#6B6049" d="M822.895 596.769C832.697 596.265 858.246 594.89 866.959 596.758C869.083 597.214 869.51 597.455 870.718 599.218C870.484 601.264 870.211 601.541 869.008 603.112C862.306 603.221 826.393 604.695 822.235 602.331C820.817 601.525 820.856 600.997 820.4 599.519C821.113 598.043 821.487 597.609 822.895 596.769Z"/>
	<path fill="#333226" d="M899.881 576.198C906.074 575.85 912.325 576.123 918.524 576.22C921.793 577.935 924.55 579.724 926.565 582.887C930.155 588.52 931.054 595.404 929.623 601.878C927.966 609.371 923.795 613.896 917.534 617.961C912.415 618.637 907.317 619.507 902.278 617.975C897.086 616.417 892.743 612.826 890.238 608.017C887.2 602.315 886.613 595.051 888.532 588.896C890.454 582.728 894.278 579.111 899.881 576.198Z"/>
	<path fill="#6B6049" d="M902.774 586.416C903.219 586.851 903.609 587.665 903.94 588.202C904.234 593.501 905.168 602.195 903.331 607.119L902.145 607.289C899.694 604.14 897.609 600.494 897.569 596.383C897.527 591.95 899.816 589.307 902.774 586.416Z"/>
	<path fill="#6B6049" d="M914.148 586.438C914.276 586.5 914.406 586.56 914.533 586.625C916.893 587.828 918.682 589.582 919.456 592.17C920.819 596.722 919.146 601.615 917.055 605.65C916.286 606.072 915.699 606.216 914.854 606.418C912.098 602.458 913.925 591.256 914.148 586.438Z"/>
	<path fill="#333226" d="M947.657 587.238C954.837 585.134 962.359 589.269 964.43 596.46C966.501 603.651 962.331 611.156 955.133 613.194C947.981 615.219 940.538 611.082 938.48 603.938C936.423 596.793 940.525 589.329 947.657 587.238Z"/>
	<path fill="#6B6049" d="M949.028 597.518C949.944 596.743 951.213 596.536 952.328 596.981C953.442 597.426 954.221 598.449 954.352 599.642C954.484 600.835 953.946 602.004 952.955 602.68C951.528 603.655 949.587 603.341 948.54 601.965C947.494 600.589 947.708 598.634 949.028 597.518Z"/>
	<path fill="#DE4A28" d="M485.73 275.684L569.184 275.331L569.116 693.968C535.335 694.055 501.362 694.142 467.603 695.127C460.456 679.974 451.148 667.006 439.875 654.665C438.711 653.355 437.5 652.087 436.245 650.864C413.346 628.301 383.468 614.182 351.501 610.819C339.367 609.57 327.113 609.943 314.935 610.084L314.989 508.601C314.985 492.416 313.542 474.869 315.258 458.832C317.173 440.933 326.143 412.947 330.911 394.544C340.939 355.002 351.257 315.536 361.866 276.146L485.73 275.684Z"/>
	<path fill="#333226" d="M390.262 292.126C419.038 291.49 447.944 292.022 476.731 291.984C493.653 291.961 512.207 290.426 528.952 292.53C534.353 293.209 540.565 294.312 544.634 298.214C550.793 304.121 551.022 311.667 551.085 319.642L551.1 400.315C551.094 411.783 552.482 427.774 550.607 438.716C549.896 442.861 548.112 446.263 545.128 449.23C542.028 452.313 538.408 454.486 534.119 455.414C525.579 457.261 514.989 456.208 506.249 456.22L454.875 456.263C430.572 456.518 406.266 456.579 381.962 456.447C382.028 463.106 383.145 472.82 378.286 478.128C375.33 481.357 370.54 482.29 366.342 482.465C358.541 482.79 344.299 484.341 338.326 478.491C332.828 473.107 334.243 462.052 334.362 455.072L320.402 454.931C320.798 452.017 320.995 449.05 322.416 446.425C324.45 444.928 325.414 445.229 327.86 445.263C332.177 441.768 334.854 422.579 336.437 416.697C337.575 412.467 340.711 409.868 341.953 405.501C347.662 385.43 362.934 311.784 371.565 300.961C376.154 295.206 383.244 293.007 390.262 292.126Z"/>
	<path fill="#FEF3D0" d="M390.377 303.417C419 302.736 447.8 303.368 476.444 303.322C493.732 303.295 512.54 301.83 529.657 303.758C532.464 304.074 534.629 304.652 536.739 306.671C539.84 309.638 540.061 313.264 540.112 317.288C540.413 340.857 540.174 364.469 540.203 388.043C540.221 402.38 540.974 417.198 539.997 431.481C539.842 433.75 539.591 439.466 537.918 441.017C531.036 447.39 512.136 444.99 503.162 444.878L382.396 444.874L382.409 436.153C382.409 429.049 383.926 416.705 378.261 411.498C372.26 405.982 360.5 407.525 353.071 407.657C356.473 394.109 375.818 314.684 381.043 307.799C383.421 304.666 386.743 303.998 390.377 303.417Z"/>
	<path fill="#6B6049" d="M348.524 418.586C355.809 418.579 363.061 418.584 370.335 419.025C370.932 434.537 371.052 450.511 370.538 466.025C370.458 468.459 370.519 469.873 368.704 471.611C362.897 471.773 352.645 473.291 347.419 470.611C342.886 463.044 347.326 428.679 348.524 418.586Z"/>
	<path fill="#FEF3D0" d="M444.014 508.575C461.957 508.631 487.964 505.184 502.711 517.475C510.996 524.381 514.927 534.603 515.889 545.128C517.477 562.511 514.765 578.286 503.454 591.999C487.568 607.495 465.148 604.388 444.743 604.387L444.014 508.575Z"/>
	<path fill="#DE4A28" d="M465.929 529.436C472.796 529.342 478.959 529.164 484.872 533.175C489.54 536.343 492.326 541.55 493.358 547.006C495.393 557.762 493.455 569.144 487.404 578.238C481.684 583.191 473.925 583.09 466.783 583.682L465.929 529.436Z"/>
	<path fill="#FEF3D0" d="M378.919 508.597L429.848 508.548L429.816 529.499C420.24 529.383 410.665 529.322 401.089 529.316L401.236 548.481L425.223 548.181C425.044 554.3 426.865 561.192 424.22 566.827C421.822 568.289 420.15 567.915 417.375 567.917L401.239 567.971L401.273 604.028L379.611 604.039L378.919 508.597Z"/>
	<path fill="#333226" d="M505.055 479.543C513.076 479.144 537.909 477.964 544.549 480.176C547.248 481.075 549.448 483.154 550.66 485.705C552.57 489.725 552.332 494.634 550.683 498.696C549.142 502.489 547.006 504.011 543.467 505.617C535.88 506.389 514.279 507.429 507.508 505.858C503.679 504.97 500.286 502.716 498.379 499.219C496.398 495.65 496.013 491.412 497.319 487.544C498.778 483.198 501.18 481.466 505.055 479.543Z"/>
	<path fill="#6B6049" d="M508.494 490.229C516.024 489.878 534.422 488.226 540.749 491.125C541.96 492.943 541.724 493.076 541.448 495.145L539.765 496.322C531.794 496.373 515.203 497.986 508.244 495.661C506.706 495.148 506.589 494.931 505.877 493.512C506.704 492.109 507.25 491.307 508.494 490.229Z"/>
	<path fill="#DE4A28" d="M579.25 275.354C636.099 275.128 692.948 275.384 749.792 276.122C752.584 289.241 750.906 306.958 750.899 320.536L750.82 404.32L750.77 743.338L750.743 763.592L633.433 763.514L596.723 763.516C592.574 763.512 588.261 764.032 584.142 763.813C582.183 763.709 580.889 763.681 579.291 762.486L579.202 760.316C578.491 744.534 579.295 728.416 579.334 712.59L579.381 619.1C579.396 504.558 580.507 389.88 579.25 275.354Z"/>
	<path fill="#FAAA2C" d="M579.631 743.362L750.77 743.338L750.743 763.592L633.433 763.514L596.723 763.516C592.574 763.512 588.261 764.032 584.142 763.813C582.183 763.709 580.889 763.681 579.291 762.486L579.202 760.316C579.818 754.81 579.551 748.915 579.631 743.362Z"/>
	<path fill="#333226" d="M620.27 505.939L677.785 505.772C688.117 505.745 698.932 505.077 709.211 506.002C712.753 506.321 716.989 506.999 720.129 508.767C724.401 511.172 727.385 516.09 728.401 520.79C730.362 529.858 729 553.933 729.006 564.733L729.01 608.115C729.006 616.758 729.372 625.59 728.639 634.201C728.335 637.773 727.901 640.843 725.932 643.918C722.483 649.307 716.342 651.263 710.43 652.546C693.711 653.39 676.536 652.651 659.768 652.664C647.074 652.673 633.652 653.613 621.032 652.509C617.034 652.159 611.861 651.271 608.523 648.909C605.613 646.852 603.009 642.316 602.485 638.857C601.533 632.573 602.035 625.659 602.028 619.29L602.016 584.763L602.048 544.157C602.06 536.263 601.565 527.88 602.649 520.062C603.03 517.313 604.087 515.108 605.796 512.919C609.462 508.223 614.561 506.562 620.27 505.939Z"/>
	<path fill="#DE4A28" d="M619.169 516.301C634.687 515.59 650.48 516.118 666.027 516.088C678.784 516.063 691.918 515.383 704.63 516.112C708.386 516.327 713.768 516.862 716.414 519.819C717.665 523.299 718.155 526.777 718.35 530.463C719.456 551.314 718.459 572.774 718.451 593.68C718.446 605.754 719.824 623.369 717.96 634.792C717.351 638.526 714.76 639.91 711.892 641.95C698.385 642.559 684.736 642.232 671.211 642.257C662.951 642.273 619.015 643.888 615.232 639.747C615.072 639.573 614.931 639.382 614.778 639.202C614.384 638.739 614.148 638.519 613.823 637.994C612.977 636.624 612.818 635.122 612.728 633.557C611.625 614.301 612.702 594.356 612.677 575.049C612.666 566.142 611.284 528.499 613.121 521.894C613.983 518.796 616.549 517.649 619.169 516.301Z"/>
	<path fill="#333226" d="M682.683 565.718C687.664 565.505 693.127 564.861 697.899 566.639C702.186 568.235 705.488 571.165 707.295 575.401C709.548 580.686 709.211 587.348 707.022 592.589C704.941 597.57 702.041 599.762 697.15 601.759C691.808 602.221 685.872 602.945 680.711 601.173C676.742 599.81 673.474 597.111 671.801 593.203C669.414 587.625 669.897 580.298 672.265 574.802C674.473 569.679 677.683 567.639 682.683 565.718Z"/>
	<path fill="#6B6049" d="M681.086 575.495C684.697 575.361 688.593 574.99 692.185 575.28C694.101 575.434 696.111 576.076 697.286 577.693C699.572 580.841 698.03 588.12 697.638 591.781C692.058 592.158 686.639 592.063 681.06 591.821C680.753 586.307 680.715 581.009 681.086 575.495Z"/>
	<path fill="#DE4A28" d="M761.268 343.885C786.747 343.127 812.431 343.746 837.933 343.743L982.483 343.739L1325.18 343.633C1328.82 343.663 1339.53 343.501 1341.88 346.164C1343.57 348.071 1343.87 351.951 1344.04 354.415C1345.03 368.607 1343.89 383.428 1343.94 397.699C1344.03 422.453 1344.91 447.494 1343.88 472.212C1342.89 473.581 1341.79 473.353 1340.17 473.617C1316.11 472.926 1291.87 473.575 1267.8 473.609L1132.44 473.708L761.205 473.811C761.174 430.518 760.719 387.172 761.268 343.885Z"/>
	<path fill="#333226" d="M853.658 353.516C865.224 352.804 884.008 350.926 893.895 357.13C901.536 357.217 909.165 355.635 916.845 355.423C942.523 354.716 968.366 355.257 994.059 355.237L1145.67 355.209L1207.51 355.161C1219.67 355.123 1234.61 353.358 1246.33 356.256C1261.65 360.046 1257.82 365.919 1266.11 373.76C1273.23 373.479 1273.98 363.174 1280.49 360.645C1283.98 359.29 1287.88 360.641 1291.06 362.211C1293.68 363.496 1294.94 366.174 1295.8 368.831C1297.9 375.252 1298.57 412.268 1295.8 417.764C1295.78 417.982 1295.77 418.203 1295.73 418.42C1295.42 420.169 1293.89 421.775 1292.54 422.81C1289.72 424.966 1285.79 427.752 1282.09 427.113C1275.63 425.995 1274.12 418.199 1270.82 413.818C1269.93 412.642 1269.09 412.863 1267.7 412.654C1267.2 412.884 1266.59 412.962 1266.19 413.345C1264.21 415.247 1269.43 442.828 1258.52 453.856C1255.53 456.878 1251.73 458.924 1247.62 459.977C1236.75 462.765 1214.93 460.868 1202.81 460.897L1017.04 460.961C980.353 460.973 943.626 461.353 906.945 460.859C902.44 457.122 900.168 456.73 894.344 456.927C892.114 458.841 889.72 460.335 887.227 461.875C876.993 462.211 856.715 464.774 848.806 457.148C840.846 449.472 843.721 428.262 843.797 418C838.331 417.834 832.758 418.62 827.346 417.672C826.829 416.187 826.359 414.735 825.438 413.442C824.627 412.304 824.61 412.588 823.329 412.392C822.218 412.885 821.105 414.153 820.514 415.203C819.862 416.361 820.045 417.171 820.42 418.355C821.894 420.038 823.352 420.533 825.392 421.273L826.221 421.57C827.686 425.868 827.233 441.36 826.519 446.211C826.023 449.588 824.749 452.806 821.825 454.784C815.619 458.982 795.132 458.708 787.71 457.328C783.034 456.459 781.249 453.803 778.701 450.15C777.341 441.676 776.829 430.547 778.477 422.122C779.823 420.613 781.691 420.923 783.653 420.759C786.765 416.921 781.884 393.662 790.419 383.85C798.037 375.092 814.717 374.735 825.337 374.03C826.978 372.177 825.761 369.692 826.825 367.34C831.492 366.021 838.626 366.853 843.587 366.863C843.881 364.308 844.23 361.185 845.376 358.844C847.083 355.36 850.238 354.511 853.658 353.516Z"/>
	<path fill="#6B6049" d="M913.289 366.1C962.023 365.532 1010.82 366.039 1059.56 366.028C1109.12 366.017 1158.73 365.492 1208.28 366.129C1212.3 367.992 1214.26 371.273 1215.69 375.273C1217.16 379.373 1217.9 384.469 1216 388.532L1213.63 389.197C1173.85 388.06 1133.88 388.918 1094.08 389.048L912.932 388.953C913.15 381.337 913.269 373.719 913.289 366.1Z"/>
	<path fill="#6B6049" d="M912.932 400.603L1216.4 400.463C1217.03 401.423 1217.42 402.331 1217.61 403.462C1218.39 408.096 1219.03 416.64 1216.51 420.479C1210.06 422.162 1161.89 420.683 1151.24 420.715L912.839 420.802L912.932 400.603Z"/>
	<path fill="#6B6049" d="M912.965 431.444L1216.23 431.268C1217.16 433.714 1217.25 435.87 1216.84 438.461C1216.33 441.696 1215.13 444.06 1212.47 445.986C1212.21 446.622 1212.32 446.484 1211.76 447.095C1209.85 449.18 1205.72 449.441 1203.06 449.583C1193.05 450.117 1182.7 449.526 1172.65 449.51L1109.28 449.466L912.776 449.392C912.768 443.411 912.891 437.424 912.965 431.444Z"/>
	<path fill="#6B6049" d="M855.234 364.065C864.707 363.558 874.258 363.775 883.744 363.77C883.357 392.817 883.918 421.889 883.741 450.941C878.135 450.995 860.51 452.49 856.929 448.638C853.416 444.861 855.009 373.536 855.234 364.065Z"/>
	<path fill="#6B6049" d="M1223.02 366.463C1230.38 365.253 1242.17 364.476 1248.61 368.816C1252.44 371.4 1254.41 375.494 1255.28 379.901C1256.38 385.446 1257.44 410.498 1254.91 414.287C1251.54 416.12 1232.28 414.629 1227.3 414.567L1227.45 414.179C1227.79 413.282 1228.06 412.427 1228.14 411.461C1228.94 401.934 1228.9 373.428 1223.02 366.463Z"/>
	<path fill="#6B6049" d="M809.309 386.433C814.912 386.002 820.601 386.08 826.221 385.972L826.191 401.329C822.115 401.658 817.154 401.573 813.971 404.555C810.103 408.178 810.779 414.68 810.778 419.539C810.83 420.961 810.788 420.952 809.927 422.096C805.605 423.06 800.67 422.453 796.257 422.307C796.551 413.498 793.759 399.509 798.872 392.091C801.427 388.384 805.195 387.363 809.309 386.433Z"/>
	<path fill="#6B6049" d="M894.326 367.574C896.896 367.572 900.531 367.253 902.842 368.368C904.121 394.116 903.04 420.339 903.072 446.139L894.053 446.35C894.016 420.109 893.637 393.805 894.326 367.574Z"/>
	<path fill="#6B6049" d="M1227.45 425.728C1236.04 425.103 1244.76 425.409 1253.38 425.446C1253.46 425.568 1253.54 425.687 1253.61 425.812C1255.55 429.222 1255.16 435.753 1254.23 439.547C1253.29 443.388 1251.78 446.107 1248.31 448.225L1248.08 448.597C1244.02 451.397 1229.38 449.861 1223.95 449.81C1224.29 449.447 1224.57 449.194 1224.83 448.787C1228.39 443.411 1228.43 431.895 1227.45 425.728Z"/>
	<path fill="#6B6049" d="M812.887 434.002C814.276 434.105 814.532 434.138 815.675 434.916C816.873 438.045 816.303 442.128 816.168 445.455C808.088 445.869 799.905 445.601 791.812 445.581C790.71 445.606 790.246 445.313 789.324 444.737C788.14 441.488 788.703 437.431 788.832 434.009L812.887 434.002Z"/>
	<path fill="#6B6049" d="M836.42 378.059C838.838 377.971 840.815 377.823 843.125 378.707C844.91 385.364 843.639 399.685 843.666 407.324C841.369 407.349 838.774 407.72 836.742 406.52C835.437 397.407 836.355 387.289 836.42 378.059Z"/>
	<path fill="#FEF3D0" d="M1282.31 372.458C1283.84 372.436 1284.27 372.319 1285.62 373.131C1286.62 375.062 1286.83 376.966 1286.97 379.097C1287.3 384.074 1287.99 408.378 1286.24 411.764C1285.92 412.391 1285.01 413.179 1284.52 413.735L1283.11 413.714C1280.68 409.257 1282.23 379.715 1282.31 372.458Z"/>
	<path fill="#FEF3D0" d="M1265.97 385.217C1267.61 384.993 1268.78 384.853 1270.38 385.34C1271.13 386.324 1271.61 387.269 1271.87 388.492C1272.59 391.795 1271.9 397.334 1270.09 400.226L1267.84 400.582C1265.05 398.114 1266.54 389.525 1266.05 385.773C1266.02 385.588 1265.99 385.403 1265.97 385.217Z"/>
	<path fill="#DE4A28" d="M295.74 276.241C314.134 276.102 332.529 276.056 350.923 276.102C339.897 316.057 329.277 356.123 319.064 396.294C314.443 413.916 307.246 434.481 304.829 452.213C302.346 470.427 303.867 490.247 303.864 508.635L304.016 611.862C281.435 617.382 260.935 625.783 243.737 641.819C210.186 673.102 197.868 719.21 196.314 763.719L168.915 763.729C168.737 750.454 170.892 730.05 168.283 717.742C163.235 693.934 143.104 708.192 132.705 701.479C131.685 699.606 131.722 699.19 131.841 697.038C134.47 695.19 150.812 696.24 155.562 695.506C158.989 694.977 161.963 693.803 165.109 692.388C165.84 691.814 166.538 691.211 167.227 690.587C173.051 685.319 176.334 678.324 176.63 670.44C176.885 663.655 174.867 656.805 170.069 651.869C160.608 642.138 144.391 643.821 131.919 643.656L131.91 598.243C151.532 598.362 179.896 602.189 195.144 587.471C201.893 580.956 205.098 572.358 205.119 563.05C205.14 553.87 202.017 545.081 195.373 538.614C181.166 524.788 150.859 528.717 131.991 528.818C131.955 524.342 131.859 519.815 132.39 515.365C136.737 478.932 170.64 468.41 200.896 460.415C213.719 457.026 226.982 453.502 240.2 452.238C255.579 450.767 277.264 456.391 290.046 446.023C293.41 443.293 294.867 439.769 296.356 435.806C300.717 424.193 303.565 411.757 306.856 399.787L321.312 347.893L330.254 314.871C331.521 310.078 333.532 304.524 333.913 299.605C334.138 296.683 333.498 293.805 331.406 291.661C323.493 283.555 304.376 285.71 293.775 285.844L295.74 276.241Z"/>
	<path fill="#6B6049" d="M1121.63 675.129C1171.57 672.664 1214.11 711.044 1216.79 760.988C1219.48 810.933 1181.29 853.65 1131.37 856.549C1081.14 859.466 1038.11 820.984 1035.42 770.732C1032.72 720.48 1071.38 677.61 1121.63 675.129Z"/>
	<path fill="#333226" d="M1118.99 704.422C1153.15 700.777 1183.8 725.532 1187.43 759.706C1191.06 793.88 1166.3 824.526 1132.14 828.145C1097.99 831.763 1067.37 807.012 1063.74 772.856C1060.11 738.7 1084.84 708.065 1118.99 704.422Z"/>
	<path fill="#DE4A28" d="M1116.83 716.297C1144.79 711.358 1171.42 730.168 1176.12 758.182C1180.82 786.195 1161.78 812.667 1133.74 817.124C1106.03 821.528 1079.95 802.769 1075.31 775.094C1070.67 747.42 1089.2 721.177 1116.83 716.297Z"/>
	<path fill="#333226" d="M1119.19 725.053C1141.83 721.334 1163.17 736.745 1166.77 759.408C1170.37 782.072 1154.85 803.34 1132.18 806.822C1109.67 810.279 1088.59 794.897 1085.02 772.4C1081.45 749.903 1096.72 728.745 1119.19 725.053Z"/>
	<path fill="#DE4A28" d="M1123.5 735.467C1140.22 734.397 1154.65 747.046 1155.78 763.759C1156.92 780.472 1144.33 794.958 1127.63 796.16C1110.83 797.37 1096.25 784.692 1095.1 767.885C1093.96 751.077 1106.7 736.542 1123.5 735.467Z"/>
	<path fill="#6B6049" d="M332.244 674.926C382.174 672.335 424.798 710.616 427.581 760.548C430.363 810.479 392.255 853.261 342.347 856.236C292.167 859.227 249.111 820.857 246.314 770.653C243.517 720.45 282.042 677.532 332.244 674.926Z"/>
	<path fill="#333226" d="M326.366 703.908C360.552 698.272 392.803 721.515 398.277 755.736C403.752 789.956 380.362 822.105 346.125 827.42C312.114 832.699 280.233 809.493 274.795 775.499C269.357 741.506 292.407 709.508 326.366 703.908Z"/>
	<path fill="#DE4A28" d="M328.031 714.919C356.099 710.191 382.698 729.076 387.498 757.138C392.297 785.201 373.485 811.856 345.442 816.728C317.296 821.619 290.529 802.719 285.712 774.554C280.896 746.388 299.86 719.664 328.031 714.919Z"/>
	<path fill="#333226" d="M330.672 724.006C345.477 721.989 360.223 728.087 369.281 739.972C378.339 751.858 380.311 767.696 374.444 781.441C368.577 795.185 355.776 804.715 340.929 806.391C318.337 808.942 297.899 792.837 295.089 770.27C292.279 747.703 308.144 727.076 330.672 724.006Z"/>
	<path fill="#DE4A28" d="M329.763 735.177C340.63 732.781 351.944 736.432 359.364 744.727C366.783 753.023 369.155 764.675 365.569 775.212C361.984 785.749 352.998 793.534 342.059 795.579C325.519 798.672 309.555 787.923 306.198 771.43C302.84 754.937 313.33 738.799 329.763 735.177Z"/>
	<path fill="#DE4A28" d="M761.205 674.58L1018.57 674.371C1010.25 685.184 1003.02 696.037 997.326 708.468C992.573 719.546 988.398 731.54 986.368 743.449C985.152 750.13 984.652 756.814 984.382 763.588L761.191 763.491L761.218 743.405L761.217 708.35L761.205 674.58Z"/>
	<path fill="#FEF3D0" d="M761.205 674.58L1018.57 674.371C1010.25 685.184 1003.02 696.037 997.326 708.468L761.217 708.35L761.205 674.58Z"/>
	<path fill="#FAAA2C" d="M761.218 743.405L909.501 743.381C935.071 743.378 960.815 742.756 986.368 743.449C985.152 750.13 984.652 756.814 984.382 763.588L761.191 763.491L761.218 743.405Z"/>
	<path fill="#DE4A28" d="M691.974 234.432C705.132 234.287 723.463 231.717 734.944 238.904C744.83 245.093 748.34 255.146 750.746 265.941C682.632 263.573 614.518 264.251 546.374 264.557L357.293 264.769C337.333 264.782 317.442 265.222 297.492 265.693C300.032 259.284 303.164 253.39 308.055 248.439C314.946 241.461 324.447 237.479 334.057 236.104C348.463 234.043 363.779 234.929 378.322 234.926L448.057 234.879L691.974 234.432Z"/>
	<path fill="#DE4A28" d="M322.454 620.712L326.202 620.602C364.158 619.64 400.249 631.065 428.034 657.592C456.772 685.029 471.026 724.444 472.027 763.657L454.923 763.717C453.648 739.049 446.591 717.065 433.074 696.339C414.591 667.997 389.143 650.146 356.177 643.136C350.397 642.269 344.667 641.598 338.818 641.492C309.261 640.957 281.763 650.526 260.417 671.219C236.832 694.082 224.556 731.363 224.071 763.646L206.091 763.639C206.886 727.27 217.78 686.492 242.147 658.623C263.11 634.648 290.933 622.829 322.454 620.712Z"/>
	<path fill="#6B6049" d="M1003.84 291.449L1250.51 291.21C1250.97 291.963 1251.29 292.495 1251.51 293.359C1252.48 297.125 1252.59 306.579 1250.55 309.946L1111.31 309.923L940.273 309.958C912.841 309.969 885.324 310.573 857.907 310.077L857.924 291.778C906.528 291.02 955.225 291.516 1003.84 291.449Z"/>
	<path fill="#6B6049" d="M859.094 194.642C902.288 193.504 945.803 194.521 989.024 194.555L1250.48 194.946C1250.69 195.291 1251.04 195.804 1251.19 196.21C1252.6 199.935 1252.37 208.428 1251.05 212.218L1248.95 213.042L857.917 213.21C857.877 209.134 856.663 197.559 859.094 194.642Z"/>
	<path fill="#DE4A28" d="M1118.6 635.779C1140.68 634.8 1163.68 638.184 1183.82 647.553C1215.39 662.234 1238.68 689.902 1250.38 722.339C1253.4 730.69 1260.75 755.992 1257.17 763.661L1238.96 763.647C1239.52 762.589 1239.71 761.953 1239.79 760.73C1241.29 737.819 1224.93 706.177 1209.9 689.575C1189.87 667.771 1162.09 654.696 1132.53 653.159C1131.76 653.069 1132.04 653.082 1131.27 653.069C1099.31 652.519 1070.04 664.03 1047.05 686.401C1027.17 705.74 1012.81 735.725 1012.46 763.676L995 763.594C997.892 732.921 1007.48 703.398 1027.98 679.87C1051.74 652.597 1082.67 638.167 1118.6 635.779Z"/>
	<path fill="#DE4A28" d="M520.845 704.8C536.897 704.491 552.951 704.364 569.006 704.42C569.512 724.14 569.022 743.935 569.243 763.668L518.812 763.673L482.491 763.72C481.611 743.269 477.662 724.603 471.389 705.154C487.85 704.713 504.37 705.036 520.845 704.8Z"/>
	<path fill="#FEF3D0" d="M290.297 296.849C297.705 296.794 317.098 295.178 322.676 298.831C323.421 302.24 291.225 417.207 287.382 429.528C285.493 435.584 284.185 437.726 278.57 440.671C268.123 442.226 256.501 441.212 245.89 441.092C261.61 393.333 275.224 344.825 290.297 296.849Z"/>
	<path fill="#FEF3D0" d="M857.813 320.968L1250.48 320.959C1250.85 321.543 1250.89 321.55 1251.17 322.313C1252.31 325.433 1251.96 329.536 1250.4 332.4C1247.48 333.975 896.394 332.978 857.873 332.983L857.813 320.968Z"/>
	<path fill="#FEF3D0" d="M1076.16 223.921C1083.56 222.637 1092.32 223.456 1099.88 223.47L1144.78 223.533C1145.15 224.107 1145.42 224.654 1145.58 225.329C1146.25 228.306 1147.05 274.634 1146.34 278.283C1146.25 278.767 1145.5 279.726 1145.23 280.196C1138.53 282.135 1085.77 280.552 1074.88 280.506C1075.04 280.239 1075.22 279.98 1075.36 279.705C1076.71 277.184 1077.21 228.067 1076.16 223.921Z"/>
	<path fill="#FEF3D0" d="M962.987 223.536L1030.01 223.487C1030.4 224.142 1030.75 224.722 1030.92 225.472C1032.02 230.082 1031.86 271.854 1031.06 277.554C1030.92 278.526 1030.48 279.412 1029.98 280.243C1023.61 281.535 1015.16 280.624 1008.59 280.621L962.807 280.568C963.071 261.566 962.932 242.541 962.987 223.536Z"/>
	<path fill="#DE4A28" d="M823.984 172.581L846.034 172.618L846.083 333.279L824.111 333.615C823.344 279.972 824.025 226.237 823.984 172.581Z"/>
	<path fill="#DE4A28" d="M1262.83 172.917C1269.75 172.361 1276.8 172.599 1283.74 172.607C1283.82 172.744 1283.91 172.876 1283.98 173.017C1284.55 174.115 1284.91 175.188 1284.95 176.425C1286 209.173 1285.02 242.238 1285.01 275.03C1285.01 284.377 1286.42 324.97 1284.36 331.835L1283.58 332.051L1283.25 332.978C1276.14 333.575 1268.83 333.362 1261.69 333.456C1262.61 331.984 1262.81 330.865 1262.94 329.143C1263.46 322.217 1263.05 314.933 1263.05 307.977L1263.05 266.564C1263.06 235.464 1264.06 203.964 1262.83 172.917Z"/>
	<path fill="#FEF3D0" d="M1190.53 223.928C1197.45 223.049 1204.94 223.539 1211.91 223.538L1250.36 223.561C1250.7 224.087 1250.99 224.526 1251.14 225.144C1252.19 229.294 1252.39 273.689 1251.41 278.278C1251.3 278.768 1250.54 279.722 1250.26 280.195C1242.28 282.017 1201.73 280.582 1190.22 280.548C1191.99 277.407 1191.76 229.802 1190.53 223.928Z"/>
	<path fill="#FEF3D0" d="M857.907 223.599L917.505 223.546L917.982 280.567L857.842 280.587L857.907 223.599Z"/>
	<path fill="#DE4A28" d="M411.869 141.279C419.939 140.917 427.997 142.411 434.221 147.87C446.904 158.993 445.465 179.058 446.391 194.427L416.812 194.415L382.466 194.379C384.306 179.865 380.851 164.866 390.437 152.22C395.819 145.121 403.313 142.391 411.869 141.279Z"/>
	<path fill="#FEF3D0" d="M132.067 539.454C146.79 539.696 175.327 536.032 187.069 545.478C191.821 549.301 193.964 554.607 194.483 560.569C195.176 568.535 192.628 573.981 187.559 579.946C175.146 590.49 147.948 587.177 131.803 587.243C132.076 571.322 131.986 555.378 132.067 539.454Z"/>
	<path fill="#6B6049" d="M117.945 713.015C126.847 712.888 149.944 710.088 156.296 716.617C157.946 718.312 158.717 720.675 159.082 722.963C160.17 729.778 158.855 756.175 158.339 764.285L148.687 764.621C142.578 764.805 114.123 766.953 110.305 763.795C107.61 761.567 106.751 755.536 106.5 752.251C106.03 746.094 105.079 719.567 108.809 715.739C111.16 713.326 114.812 713.265 117.945 713.015Z"/>
	<path fill="#6B6049" d="M628.261 143.908C651.435 152.129 676.088 153.665 700.426 155.254L700.377 183.135L690.325 183.242C668.747 183.294 648.754 186.844 628.241 193.374C631.423 177.033 630.187 160.312 628.261 143.908Z"/>
	<path fill="#6B6049" d="M1359.57 728.052C1368.18 727.13 1395.39 726.182 1402.72 728.612C1404.23 729.114 1405.15 729.556 1405.76 731.12C1406.99 734.274 1407.01 765.428 1405.41 768.113C1404.36 769.874 1402.98 769.802 1401.16 770.158C1393.17 770.722 1363.66 771.97 1357.51 768.405C1355.11 764.117 1356.01 746.321 1355.96 740.394C1355.92 735.523 1355.99 731.73 1359.57 728.052Z"/>
	<path fill="#FEF3D0" d="M370.492 206.309C383.973 205.367 398.048 206.151 411.606 206.107C425.457 206.061 440.102 205.073 453.87 206.336C455.673 206.502 457.333 206.865 458.895 207.839C464.346 211.237 465.291 218.035 466.598 223.774L457.621 223.897L361.505 224.017C362.72 215.687 363.893 211.807 370.492 206.309Z"/>
	<path fill="#6B6049" d="M595.664 122.489C600.124 122.43 607.506 122.42 610.946 125.64C617.845 132.1 618.528 152.248 618.964 161.438C619.589 174.641 620.771 198.704 611.476 208.933C606.831 211.85 601.639 211.908 596.342 212.378C604.675 184.574 603.053 150.304 595.664 122.489Z"/>
	<path fill="#FEF3D0" d="M928.611 223.529L951.603 223.484L951.751 280.585L928.981 280.532C928.661 261.533 928.538 242.531 928.611 223.529Z"/>
	<path fill="#FEF3D0" d="M1041.44 223.908C1048.75 223.06 1056.38 223.479 1063.74 223.519C1064.28 224.373 1064.66 225.205 1064.88 226.2C1065.77 230.162 1065.68 274.613 1064.79 278.269C1064.67 278.766 1063.85 279.728 1063.54 280.201C1056.31 281.114 1048.55 280.567 1041.24 280.531C1041.32 280.407 1041.4 280.286 1041.47 280.159C1043.33 276.844 1043.03 229.648 1041.44 223.908Z"/>
	<path fill="#FEF3D0" d="M1156.44 223.926C1163.57 222.883 1171.36 223.493 1178.57 223.553C1178.96 224.168 1179.29 224.712 1179.49 225.416C1180.86 230.252 1180.98 277.029 1179.15 280.067C1176.55 281.629 1160.3 280.561 1156.3 280.522C1156.46 280.252 1156.63 279.988 1156.77 279.711C1158.24 276.842 1157.89 228.777 1156.44 223.926Z"/>
	<path fill="#DE4A28" d="M581.75 122.548L583.374 123.481C589.445 132.767 589.812 152.137 590.13 163.152C590.431 173.567 590.692 204.513 583.43 212.236C578.591 208.624 576.807 202.437 575.65 196.75C571.973 178.673 571.194 138.281 581.75 122.548Z"/>
	<path fill="#DE4A28" d="M1376.17 637.28C1378.98 637.177 1381.88 636.973 1384.68 637.197C1388.01 637.463 1391.09 638.685 1393.2 641.375C1396.28 645.31 1395.61 680.431 1394.66 686.817C1394.25 689.551 1393.52 690.154 1391.47 691.727L1391.2 692.405C1387.93 695.39 1379.15 694.228 1374.84 694.17C1374.9 694.051 1374.96 693.931 1375.02 693.812C1378.06 687.978 1376.09 647.305 1376.17 637.28Z"/>
	<path fill="#DE4A28" d="M131.819 654.983C140.704 654.882 151.778 653.325 159.855 657.712C162.947 659.391 165.638 662.024 166.464 665.545C167.632 670.529 164.75 676.61 162.061 680.661C160.504 682.224 158.423 683.479 156.632 684.776C148.39 685.277 140.085 685.08 131.829 685.062L131.819 654.983Z"/>
	<path fill="#FEF3D0" d="M648.489 199.7L650.489 199.743C653.218 203.691 651.768 218.398 651.747 223.796L605.064 223.74L603.016 223.727L602.261 222.156L601.906 223.412C604.039 222.634 606.758 222.877 609.149 222.076C618.238 219.027 622.159 214.643 626.337 206.192C633.466 203.339 641.003 201.354 648.489 199.7Z"/>
	<path fill="#6B6049" d="M778.525 291.155C789.975 290.962 801.428 291.055 812.874 291.433L812.846 310.087C803.309 309.81 787.987 311.643 779.288 308.822C776.923 305.356 778.339 295.445 778.525 291.155Z"/>
	<path fill="#6B6049" d="M785.936 193.888L813.003 194.275C812.847 199.8 814.805 207.255 811.737 212.018C809.614 213.515 807.037 212.955 804.563 212.793C795.869 212.651 787.177 212.46 778.486 212.22C778.38 206.805 776.925 200.642 779.22 195.596C781.551 193.808 783.048 194.092 785.936 193.888Z"/>
	<path fill="#6B6049" d="M1296.5 291.445C1307.18 290.461 1318.59 291.024 1329.3 291.218C1329.96 292.173 1330.32 293.29 1330.45 294.437C1330.99 298.944 1331.45 305.821 1328.59 309.452C1323.22 311.356 1301.91 310.047 1295.02 310.008C1297.96 305.57 1296.78 296.59 1296.5 291.445Z"/>
	<path fill="#6B6049" d="M1296.14 194.672C1306.82 193.964 1318.57 193.664 1329.23 194.776C1329.71 195.543 1330.05 196.074 1330.26 196.967C1331.23 201.173 1331.41 208.397 1328.84 211.928C1323.17 214.7 1302.03 213.018 1295.27 213.012C1297.84 208.788 1296.52 199.574 1296.14 194.672Z"/>
	<path fill="#6B6049" d="M710.761 151.835C714.56 151.755 718.359 152.111 722.146 152.387C722.368 161.71 724.612 178.049 720.689 186.576C717.233 186.945 713.679 186.96 710.204 187.117C710.263 178.898 708.389 158.327 710.761 151.835Z"/>
	<path fill="#6B6049" d="M664.068 196.089L674.019 195.608C674.086 201.289 675.545 219.785 673.232 223.934L663.34 224.133C663.292 218.402 661.636 199.963 664.068 196.089Z"/>
	<path fill="#333226" d="M342.163 87.6792C344.496 87.7176 346.015 88.1544 347.869 89.6505C352.297 93.2238 372.306 112.153 373.839 116.324C374.081 116.981 374.053 118.148 374.138 118.874C373.434 121.552 371.791 122.901 369.849 124.71C369.093 124.714 368.345 124.708 367.591 124.631C362.695 124.134 344.088 104.351 340.131 99.6675C338.442 97.6683 337.144 95.7577 337.579 93.0297C337.936 90.7853 340.512 89.0278 342.163 87.6792Z"/>
	<path fill="#333226" d="M411.616 70.3459C414.129 70.3741 416.435 70.2108 418.249 72.2699C422.939 77.5935 421.093 99.2969 420.422 106.472C420.052 110.436 419.51 112.212 416.352 114.839C415.96 114.834 415.569 114.83 415.178 114.808C412.971 114.688 410.465 114.189 409.028 112.352C406.041 108.533 407.167 84.2564 407.62 78.4711C407.928 74.5338 408.612 72.9405 411.616 70.3459Z"/>
	<path fill="#333226" d="M483.204 87.5014C484.848 87.7267 486.687 88.189 487.997 89.2756C489.342 90.3915 490.061 91.9816 489.907 93.7277C489.376 99.7201 466.845 120.619 461.25 124.936C459.098 124.612 456.318 123.783 455.079 121.835C454.205 120.461 454.116 119.161 454.48 117.618C456.135 110.608 476.889 91.8247 483.204 87.5014Z"/>
	<path fill="#333226" d="M309.806 149.207C316.808 149.063 343.046 152.006 347.972 155.988C349.392 157.136 350.021 158.592 349.982 160.412C349.937 162.578 348.14 164.379 346.789 165.894C340.43 166.053 312.546 162.963 308.058 159.081C306.683 157.893 306.119 156.491 306.226 154.691C306.358 152.466 308.35 150.705 309.806 149.207Z"/>
	<path fill="#333226" d="M513.503 149.572C515.783 149.263 517.179 149.243 519.316 150.146C520.826 151.545 521.435 152.809 522.166 154.717C522.042 155.542 522.053 156.773 521.574 157.447C517.347 163.406 495.878 163.987 488.349 165.23C486.272 165.458 483.12 166.03 481.293 164.806C479.362 163.512 478.241 161.495 477.939 159.241C478.163 158.358 478.355 157.652 478.973 156.954C483.742 151.563 506.144 150.495 513.503 149.572Z"/>
</svg>
